<svg xmlns="http://www.w3.org/2000/svg" viewBox="0 0 100 100" width="100" height="100">
  <!-- Shield background -->
  <path d="M50 5 L95 30 L95 50 C95 75 75 95 50 95 C25 95 5 75 5 50 L5 30 Z" fill="#3454d1" />
  
  <!-- Inner shield highlight -->
  <path d="M50 15 L85 35 L85 50 C85 70 70 85 50 85 C30 85 15 70 15 50 L15 35 Z" fill="#4060e0" />
  
  <!-- Lock design -->
  <rect x="35" y="45" width="30" height="25" rx="3" fill="#fff" />
  <rect x="42" y="35" width="16" height="20" rx="8" fill="none" stroke="#fff" stroke-width="6" />
  
  <!-- Redaction bars -->
  <rect x="38" y="55" width="24" height="4" rx="2" fill="#3454d1" />
  <rect x="38" y="62" width="24" height="4" rx="2" fill="#3454d1" />
</svg>